<?xml version="1.0" standalone="no"?>
<!DOCTYPE svg PUBLIC "-//W3C//DTD SVG 20010904//EN"
 "http://www.w3.org/TR/2001/REC-SVG-20010904/DTD/svg10.dtd">
<svg version="1.0" xmlns="http://www.w3.org/2000/svg"
 width="1024.000000pt" height="1024.000000pt" viewBox="0 0 1024.000000 1024.000000"
 preserveAspectRatio="xMidYMid meet">

<g transform="translate(0.000000,1024.000000) scale(0.100000,-0.100000)"
fill="#000000" stroke="none">
<path d="M3782 4210 c0 -14 2 -19 5 -12 2 6 2 18 0 25 -3 6 -5 1 -5 -13z"/>
<path d="M7510 4207 c0 -7 4 -17 9 -22 5 -6 11 -19 14 -30 3 -11 5 -1 6 23 1
31 -3 42 -14 42 -8 0 -15 -6 -15 -13z"/>
<path d="M3781 4134 c0 -11 3 -14 6 -6 3 7 2 16 -1 19 -3 4 -6 -2 -5 -13z"/>
<path d="M7280 3956 c0 -2 8 -10 18 -17 15 -13 16 -12 3 4 -13 16 -21 21 -21
13z"/>
<path d="M7438 3857 c12 -7 19 -17 15 -23 -4 -5 -1 -3 7 4 13 11 13 14 0 22
-8 5 -22 10 -30 9 -9 0 -6 -4 8 -12z"/>
<path d="M6032 2408 c-14 -14 -16 -86 -3 -107 12 -19 20 -2 22 57 3 57 -1 68
-19 50z"/>
<path d="M5010 2396 c0 -14 33 -35 54 -36 15 0 16 2 6 15 -7 9 -19 14 -25 11
-7 -2 -18 1 -24 7 -6 6 -11 7 -11 3z"/>
<path d="M5222 2370 c0 -19 2 -27 5 -17 2 9 2 25 0 35 -3 9 -5 1 -5 -18z"/>
<path d="M4950 2278 c-24 -9 -23 -10 20 -34 41 -24 70 -26 70 -5 0 5 -15 18
-33 28 -25 15 -39 18 -57 11z"/>
<path d="M4020 2253 c0 -12 5 -25 11 -28 17 -11 18 -2 4 25 -14 24 -14 24 -15
3z"/>
<path d="M5348 1719 c4 -37 3 -39 -25 -39 -18 0 -38 9 -49 21 -15 17 -27 20
-58 16 -58 -8 -69 -26 -13 -23 38 3 48 0 52 -15 6 -17 17 -22 77 -33 10 -2 19
5 22 18 8 31 7 84 -2 90 -4 2 -6 -13 -4 -35z"/>
<path d="M4750 1579 c0 -5 5 -7 10 -4 6 3 10 8 10 11 0 2 -4 4 -10 4 -5 0 -10
-5 -10 -11z"/>
<path d="M5140 1566 c0 -2 8 -10 18 -17 15 -13 16 -12 3 4 -13 16 -21 21 -21
13z"/>
<path d="M5261 1544 c0 -11 3 -14 6 -6 3 7 2 16 -1 19 -3 4 -6 -2 -5 -13z"/>
<path d="M5361 1524 c0 -11 3 -14 6 -6 3 7 2 16 -1 19 -3 4 -6 -2 -5 -13z"/>
</g>
</svg>
